<?xml version="1.0" standalone="no"?>
<!DOCTYPE svg PUBLIC "-//W3C//DTD SVG 20010904//EN"
 "http://www.w3.org/TR/2001/REC-SVG-20010904/DTD/svg10.dtd">
<svg version="1.0" xmlns="http://www.w3.org/2000/svg"
 width="192.000000pt" height="192.000000pt" viewBox="0 0 192.000000 192.000000"
 preserveAspectRatio="xMidYMid meet">
<metadata>
Created by potrace 1.11, written by Peter Selinger 2001-2013
</metadata>
<g transform="translate(0.000000,192.000000) scale(0.100000,-0.100000)"
fill="#000000" stroke="none">
<path d="M0 960 l0 -960 960 0 960 0 0 960 0 960 -960 0 -960 0 0 -960z m1280
237 c174 -361 190 -409 156 -462 -38 -58 -109 -76 -411 -105 -330 -31 -502
-66 -693 -140 -42 -16 -77 -28 -79 -26 -5 5 417 731 427 734 6 2 29 -12 52
-32 23 -20 44 -36 47 -36 3 1 78 95 166 209 88 115 163 206 166 202 4 -3 80
-158 169 -344z m306 -634 l93 -193 -637 1 -637 1 65 30 c131 61 285 104 657
182 250 53 333 100 333 189 l1 42 16 -30 c9 -16 58 -117 109 -222z"/>
</g>
</svg>
